<svg width="24" height="24" viewBox="0 0 24 24" fill="none" xmlns="http://www.w3.org/2000/svg">
<path d="M12.5302 14.5302C12.2373 14.8231 11.7625 14.8231 11.4696 14.5302L7.46962 10.5302C7.17683 10.2373 7.17677 9.76253 7.46962 9.46967C7.76249 9.17689 8.2373 9.1769 8.53017 9.46967L11.2499 12.1894L11.2499 4.99994C11.25 4.58581 11.5858 4.24999 11.9999 4.24994C12.4141 4.24994 12.7498 4.58577 12.7499 4.99994V12.1894L15.4696 9.46967C15.7625 9.17681 16.2373 9.17682 16.5302 9.46967C16.8231 9.76255 16.823 10.2373 16.5302 10.5302L12.5302 14.5302Z" fill="#10151A"/>
<path d="M4.25 15C4.25 14.5858 4.58579 14.25 5 14.25C5.41421 14.25 5.75 14.5858 5.75 15V18.25H18.25V15C18.25 14.5858 18.5858 14.25 19 14.25C19.4142 14.25 19.75 14.5858 19.75 15V19C19.75 19.4143 19.4142 19.75 19 19.75H5C4.58579 19.75 4.25 19.4143 4.25 19V15Z" fill="#10151A"/>
</svg>
