<svg width="24" height="24" viewBox="0 0 24 24" fill="none" xmlns="http://www.w3.org/2000/svg">
<path d="M18.5 11.25C18.9142 11.25 19.25 11.5858 19.25 12C19.25 12.4142 18.9142 12.75 18.5 12.75L5.5 12.75C5.08579 12.75 4.75 12.4142 4.75 12C4.75 11.5858 5.08579 11.25 5.5 11.25L18.5 11.25Z" fill="white"/>
<path d="M18.5 16.25C18.9142 16.25 19.25 16.5858 19.25 17C19.25 17.4142 18.9142 17.75 18.5 17.75L5.5 17.75C5.08579 17.75 4.75 17.4142 4.75 17C4.75 16.5858 5.08579 16.25 5.5 16.25L18.5 16.25Z" fill="white"/>
<path d="M18.5 6.25C18.9142 6.25 19.25 6.58579 19.25 7C19.25 7.41421 18.9142 7.75 18.5 7.75L5.5 7.75C5.08579 7.75 4.75 7.41421 4.75 7C4.75 6.58579 5.08579 6.25 5.5 6.25L18.5 6.25Z" fill="white"/>
</svg>
