<svg width="142" height="30" viewBox="0 0 142 30" fill="none" xmlns="http://www.w3.org/2000/svg">
<g clip-path="url(#clip0_2554_2974)">
<path d="M7.47583 22.6853L1.77229 3.51236C1.62191 3.01827 1.46079 2.65844 1.28894 2.43287C1.11708 2.20731 0.816327 1.99786 0.386681 1.80452L0 1.6434V1.32117H8.5392V1.6434L7.86251 1.90119C7.36842 2.09453 7.03545 2.33083 6.86359 2.6101C6.69173 2.88937 6.68099 3.27605 6.83136 3.77015L10.3437 17.1751L14.1461 5.92911L13.4049 3.64125C13.2546 3.19012 13.1149 2.84641 12.986 2.6101C12.8571 2.3738 12.6423 2.18046 12.3416 2.03008L11.6327 1.6434V1.32117H19.7207V1.6434L18.7218 2.03008C18.2922 2.18046 18.0505 2.40065 17.9968 2.69066C17.9431 2.98067 17.9914 3.35124 18.1418 3.80237L22.2342 17.4973L26.101 4.06016C26.2513 3.54458 26.305 3.09345 26.2621 2.70677C26.2191 2.32009 25.9506 2.04082 25.4565 1.86896L24.7798 1.6434V1.32117H29.2589V1.6434L28.4211 1.96564C27.9914 2.11601 27.6907 2.35232 27.5188 2.67455C27.3469 2.99678 27.1966 3.39421 27.0677 3.86682L21.7186 22.6853H19.4952L14.6617 7.54029L9.69925 22.6853H7.47583Z" fill="white"/>
<path d="M34.6506 6.60583C36.0469 6.60583 37.2392 6.89048 38.2274 7.45976C39.2156 8.02904 39.9728 8.8024 40.4991 9.77984C41.0255 10.7573 41.2886 11.869 41.2886 13.115C41.2886 13.3513 41.2779 13.5929 41.2564 13.84C41.2349 14.087 41.1919 14.3072 41.1275 14.5006H31.5249C31.5464 16.8207 31.9599 18.4909 32.7655 19.5113C33.5711 20.5317 34.7687 21.0419 36.3584 21.0419C37.4325 21.0419 38.3026 20.8701 38.9685 20.5264C39.6345 20.1826 40.2575 19.6778 40.8375 19.0119L41.1597 19.3019C40.4938 20.4834 39.6076 21.4071 38.5013 22.0731C37.395 22.739 36.0684 23.072 34.5217 23.072C32.975 23.072 31.6431 22.7444 30.4615 22.0892C29.28 21.434 28.3563 20.4941 27.6903 19.2696C27.0244 18.0451 26.6914 16.5844 26.6914 14.8873C26.6914 13.1902 27.0781 11.6273 27.8514 10.3921C28.6248 9.15686 29.6184 8.21701 30.8321 7.57254C32.0459 6.92807 33.3187 6.60583 34.6506 6.60583ZM34.5539 7.2503C33.9309 7.2503 33.3992 7.43827 32.9589 7.81421C32.5185 8.19015 32.1748 8.8561 31.9277 9.81206C31.6807 10.768 31.5464 12.116 31.5249 13.8561H37.0351C37.2499 11.5145 37.164 9.82818 36.7773 8.79703C36.3907 7.76588 35.6495 7.2503 34.5539 7.2503Z" fill="white"/>
<path d="M42.4277 22.5887V22.2664L42.8789 22.1375C43.3085 22.0086 43.6039 21.8153 43.765 21.5575C43.9261 21.2997 44.0067 20.956 44.0067 20.5264V10.4404C44.0067 9.9893 43.9261 9.65095 43.765 9.42539C43.6039 9.19982 43.3085 9.04408 42.8789 8.95815L42.4277 8.86148V8.53924L48.3246 6.63806L48.6469 6.9603L48.5502 11.536V20.5586C48.5502 20.9882 48.6307 21.3319 48.7919 21.5897C48.953 21.8475 49.2376 22.0409 49.6458 22.1697L49.968 22.2664V22.5887H42.4277Z" fill="white"/>
<path d="M57.8723 17.014C56.3901 17.014 55.1334 16.7669 54.1022 16.2729V17.3684C54.1022 18.0344 54.4352 18.4318 55.1011 18.5607L61.1591 19.6885C62.1688 19.8819 63.0818 20.1343 63.8981 20.4458C64.7144 20.7573 65.3697 21.1977 65.8637 21.7669C66.3578 22.3362 66.6049 23.115 66.6049 24.1031C66.6049 25.1558 66.2612 26.1278 65.5737 27.0194C64.8863 27.9109 63.8713 28.6305 62.5286 29.1783C61.186 29.7261 59.5157 30 57.5179 30C55.7993 30 54.4352 29.8228 53.4255 29.4683C52.4158 29.1139 51.7016 28.6574 51.2827 28.0988C50.8637 27.5403 50.6543 26.9495 50.6543 26.3266C50.6543 25.5532 50.9175 24.7745 51.4438 23.9904C51.9701 23.2063 52.6199 22.5779 53.3933 22.1053C52.7273 21.8475 52.244 21.5145 51.9432 21.1064C51.6425 20.6982 51.4921 20.2578 51.4921 19.7852C51.4921 19.3556 51.6049 18.9528 51.8305 18.5768C52.056 18.2009 52.3299 17.8196 52.6521 17.4329L53.7155 16.0795C52.1473 15.1773 51.3632 13.7594 51.3632 11.826C51.3632 10.2793 51.9164 9.02258 53.0227 8.05588C54.1291 7.08918 55.7563 6.60583 57.9046 6.60583C59.0002 6.60583 59.9615 6.73472 60.7886 6.99251C61.6156 7.2503 62.2977 7.6155 62.8347 8.08811C63.5222 7.98069 64.172 7.80347 64.7843 7.55642C65.3965 7.30937 65.9497 6.97103 66.4438 6.54138L66.8949 6.86362V8.50701H63.2537C64.027 9.3663 64.4137 10.4726 64.4137 11.826C64.4137 13.3298 63.8605 14.5704 62.7542 15.5478C61.6479 16.5253 60.0206 17.014 57.8723 17.014ZM53.0388 25.2954C53.0388 26.5629 53.4309 27.5188 54.215 28.1633C54.9991 28.8078 56.2397 29.13 57.9368 29.13C59.7198 29.13 61.0625 28.84 61.9647 28.26C62.867 27.6799 63.3181 26.8636 63.3181 25.811C63.3181 25.2095 63.0979 24.7261 62.6575 24.3609C62.2171 23.9957 61.4706 23.7165 60.418 23.5231L54.5856 22.4275C54.4137 22.3846 54.2418 22.3416 54.07 22.2986C53.7692 22.7283 53.5222 23.217 53.3288 23.7648C53.1355 24.3126 53.0388 24.8228 53.0388 25.2954ZM57.8401 16.3695C58.6994 16.3695 59.3278 16.0151 59.7252 15.3061C60.1226 14.5972 60.3213 13.4157 60.3213 11.7616C60.3213 10.1074 60.1226 8.94203 59.7252 8.26533C59.3278 7.58864 58.7209 7.2503 57.9046 7.2503C57.0882 7.2503 56.5082 7.59938 56.1001 8.29756C55.6919 8.99573 55.4878 10.1719 55.4878 11.826C55.4878 13.4802 55.6758 14.6509 56.0517 15.3384C56.4277 16.0258 57.0238 16.3695 57.8401 16.3695Z" fill="white"/>
<path d="M67.3896 22.5886V22.2664L67.7763 22.1375C68.5497 21.8797 68.9364 21.3426 68.9364 20.5263V3.31901C68.9364 2.86788 68.8612 2.53491 68.7108 2.32009C68.5604 2.10526 68.2704 1.94415 67.8408 1.83673L67.3574 1.70784V1.38561L73.0287 0L73.5443 0.290011L73.4154 4.83351V8.86144C74.1673 8.23845 74.9783 7.70677 75.8483 7.26638C76.7183 6.82599 77.6797 6.6058 78.7323 6.6058C80.1286 6.6058 81.2403 7.00322 82.0674 7.79807C82.8945 8.59291 83.308 9.8174 83.308 11.4715V20.5585C83.308 20.9882 83.3939 21.3319 83.5658 21.5897C83.7377 21.8475 84.0384 22.0408 84.4681 22.1697L84.7258 22.2664V22.5886H77.1856V22.2664L77.5722 22.1697C78.3456 21.9119 78.7323 21.3641 78.7323 20.5263V10.4082C78.7323 9.54887 78.5873 8.95811 78.2973 8.63588C78.0073 8.31364 77.4971 8.15252 76.7667 8.15252C76.2941 8.15252 75.7785 8.24382 75.2199 8.42642C74.6614 8.60902 74.0921 8.92589 73.5121 9.37701V20.5908C73.5121 21.4286 73.8988 21.9656 74.6721 22.2019L74.9299 22.2664V22.5886H67.3896Z" fill="white"/>
<path d="M91.138 23.072C89.7632 23.072 88.6944 22.7283 87.9318 22.0408C87.1692 21.3534 86.7879 20.2578 86.7879 18.754V7.73363H84.5645V7.41139L85.3378 7.2825C86.0038 7.13212 86.5784 6.9173 87.0618 6.63803C87.5451 6.35876 88.0231 5.98282 88.4957 5.51021L91.138 2.57788H91.4603L91.3636 7.08916H94.9726V7.73363H91.3314V19.3341C91.3314 20.0859 91.4979 20.6552 91.8308 21.0419C92.1638 21.4286 92.5881 21.6219 93.1037 21.6219C93.5548 21.6219 93.9522 21.5091 94.2959 21.2836C94.6396 21.058 94.9834 20.7519 95.3271 20.3652L95.6493 20.6874C95.2197 21.4178 94.6289 21.9979 93.877 22.4275C93.1251 22.8571 92.2121 23.072 91.138 23.072Z" fill="white"/>
<path d="M99.0017 23.072C98.2928 23.072 97.7289 22.8894 97.31 22.5242C96.8911 22.159 96.6816 21.6327 96.6816 20.9452C96.6816 20.5585 96.7246 20.0913 96.8105 19.5435C96.8965 18.9957 97.0254 18.2922 97.1972 17.4329L99.0339 8.5392C99.2058 7.72288 99.3508 6.98174 99.469 6.31579C99.5871 5.64984 99.7214 4.89796 99.8718 4.06015C100.022 3.20086 99.6784 2.62084 98.8406 2.32009L98.2928 2.12675L98.3573 1.80451L104.673 0L104.866 0.225564L100.903 18.9151C100.838 19.2374 100.785 19.522 100.742 19.7691C100.699 20.0161 100.677 20.2256 100.677 20.3974C100.677 20.87 100.881 21.1063 101.29 21.1063C101.827 21.1063 102.611 20.623 103.642 19.6563L103.964 19.9141C103.427 20.7089 102.75 21.4339 101.934 22.0892C101.118 22.7444 100.14 23.072 99.0017 23.072Z" fill="white"/>
<path d="M121.817 22.4382C122.583 22.4382 123.195 22.2072 123.657 21.7454C124.119 21.2835 124.35 20.6498 124.35 19.8442C124.35 19.2024 124.21 18.5364 123.928 17.8544C123.646 17.1723 123.225 16.3963 122.661 15.5316C122.58 15.4108 122.344 15.0483 121.952 14.4467C121.56 13.8426 121.267 13.2652 121.076 12.7121C120.886 12.1589 120.789 11.6111 120.789 11.0687C120.789 9.76093 121.275 8.69755 122.252 7.87048C123.227 7.0461 124.57 6.63257 126.28 6.63257C127.588 6.63257 128.678 6.86887 129.554 7.34148C130.429 7.81409 130.867 8.62236 130.867 9.76898C130.867 10.3329 130.706 10.8458 130.384 11.3076C130.061 11.7695 129.61 12.0005 129.027 12.0005C128.525 12.0005 128.123 11.8098 127.822 11.4258C127.521 11.0445 127.368 10.5611 127.368 9.97843C127.368 9.47628 127.459 9.00905 127.639 8.57671C127.819 8.14438 128.042 7.7765 128.302 7.47575C128.042 7.31463 127.688 7.23407 127.247 7.23407C126.522 7.23407 125.956 7.45964 125.542 7.91345C125.128 8.36458 124.914 8.99562 124.895 9.79852C124.895 10.3409 125 10.835 125.212 11.2754C125.424 11.7185 125.781 12.3415 126.283 13.1444L126.705 13.7781C127.349 14.8442 127.806 15.7196 128.077 16.4016C128.348 17.0864 128.485 17.7684 128.485 18.4532C128.485 19.3393 128.254 20.1261 127.792 20.8216C127.33 21.5144 126.67 22.0622 125.816 22.465C124.962 22.8678 123.96 23.0692 122.814 23.0692C121.385 23.0692 120.201 22.7926 119.256 22.2394C118.311 21.6863 117.838 20.7974 117.838 19.5703C117.838 18.9661 117.988 18.4532 118.289 18.0316C118.59 17.61 119.003 17.3979 119.527 17.3979C120.051 17.3979 120.467 17.6208 120.778 18.0611C121.09 18.5042 121.246 19.0681 121.246 19.7502C121.246 20.1933 121.194 20.5907 121.095 20.9424C120.993 21.2942 120.843 21.7212 120.644 22.2233C120.945 22.363 121.337 22.4355 121.82 22.4355L121.817 22.4382Z" fill="white"/>
<path d="M132.103 22.4086C132.293 22.4489 132.559 22.4677 132.903 22.4677C133.808 22.4677 134.541 22.1965 135.105 21.6541C135.669 21.1116 135.948 20.3463 135.948 19.3608C135.948 18.719 135.827 18.0907 135.585 17.4758C135.344 16.8635 134.941 16.1627 134.38 15.3785C133.695 14.4548 133.198 13.6949 132.887 13.1014C132.575 12.508 132.419 11.8098 132.419 11.0042C132.419 10.1986 132.632 9.44138 133.053 8.78618C133.475 8.13365 134.044 7.62613 134.758 7.26362C135.473 6.90111 136.251 6.72119 137.094 6.72119C138.139 6.72119 139.014 6.91722 139.718 7.30927C140.422 7.70132 140.773 8.3807 140.773 9.34471C140.773 9.70723 140.658 10.059 140.427 10.4C140.196 10.7411 139.85 10.9129 139.388 10.9129C139.047 10.9129 138.759 10.7921 138.528 10.5504C138.297 10.3087 138.182 10.008 138.182 9.64547C138.182 9.00368 138.464 8.32968 139.028 7.62613C138.647 7.38446 138.142 7.26362 137.519 7.26362C136.753 7.26362 136.125 7.52141 135.634 8.03161C135.14 8.5445 134.895 9.24267 134.895 10.1288C134.895 10.6524 134.986 11.0982 135.166 11.4715C135.346 11.8447 135.679 12.3925 136.163 13.1149L136.705 13.899C137.309 14.8254 137.755 15.6175 138.048 16.2808C138.34 16.9441 138.485 17.6288 138.485 18.3324C138.485 19.2373 138.249 20.0509 137.777 20.776C137.304 21.4983 136.67 22.0622 135.875 22.465C135.08 22.8678 134.221 23.0692 133.297 23.0692C132.151 23.0692 131.187 22.8222 130.403 22.3308C129.619 21.8393 129.227 21.0901 129.227 20.0832C129.227 19.7421 129.323 19.4306 129.514 19.1487C129.705 18.8667 130.003 18.7271 130.403 18.7271C130.846 18.7271 131.176 18.907 131.399 19.2695C131.619 19.632 131.732 20.0832 131.732 20.6256C131.732 20.9666 131.662 21.4903 131.52 22.1938C131.721 22.2958 131.917 22.3657 132.108 22.4059L132.103 22.4086Z" fill="white"/>
<path d="M116.504 13.4318C114.629 14.6805 112.454 15.6472 109.978 16.3319C109.857 17.0167 109.798 17.7014 109.798 18.3862C109.798 19.4549 109.994 20.2095 110.386 20.6526C110.779 21.0956 111.359 21.3185 112.124 21.3185C112.747 21.3185 113.453 21.1225 114.24 20.7304C115.027 20.3384 115.792 19.7073 116.536 18.8427L117.019 19.0844C116.294 20.2122 115.322 21.1681 114.103 21.9549C112.884 22.7417 111.52 23.1338 110.008 23.1338C108.617 23.1338 107.481 22.7605 106.595 22.0167C105.709 21.2729 105.266 20.2229 105.266 18.8749C105.266 17.0811 105.749 15.2283 106.716 13.3164C107.682 11.4018 109.001 9.81744 110.674 8.55804C112.347 7.29864 114.178 6.67029 116.173 6.67029C117.1 6.67029 117.854 6.87705 118.44 7.29059C119.022 7.70412 119.315 8.2922 119.315 9.05751C119.315 10.7304 118.378 12.1912 116.506 13.4399L116.504 13.4318ZM113.512 8.47748C112.766 9.30455 112.081 10.376 111.458 11.6945C110.832 13.0129 110.37 14.369 110.067 15.7573C111.495 15.1343 112.605 14.4576 113.391 13.7326C114.197 13.0076 114.831 12.1778 115.295 11.2406C115.757 10.3035 115.991 9.30187 115.991 8.23312C115.991 7.85181 115.95 7.58866 115.87 7.44634C115.789 7.3067 115.668 7.2342 115.507 7.2342C114.922 7.2342 114.259 7.64773 113.512 8.47211V8.47748Z" fill="white"/>
<path d="M46.9871 0.0510373C45.7733 0.0590932 44.9866 0.494109 44.24 1.24867C43.4935 2.00324 42.9565 3.50163 43.8856 4.2374C44.7449 4.91677 46.2003 4.57306 47.1831 4.16489C48.2733 3.71108 49.0601 2.9055 48.9661 1.70249C48.8722 0.49948 47.7094 0.048352 46.9871 0.0510373Z" fill="white"/>
</g>
<defs>
<clipPath id="clip0_2554_2974">
<rect width="142" height="30" fill="white"/>
</clipPath>
</defs>
</svg>
