<svg width="24" height="24" viewBox="0 0 24 24" fill="none" xmlns="http://www.w3.org/2000/svg">
<path fill-rule="evenodd" clip-rule="evenodd" d="M9.89485 6.74726C11.0381 5.81607 12.75 6.62961 12.75 8.10414V16.1126C12.75 17.5169 11.1792 18.3492 10.0172 17.5606L6.56951 15.2205H4C3.58579 15.2205 3.25 14.8847 3.25 14.4705V10.2352C3.25 9.82102 3.58579 9.48524 4 9.48524H6.53322L9.89485 6.74726ZM11.25 8.10414C11.25 7.89349 11.0054 7.77727 10.8421 7.9103L7.27364 10.8168C7.13984 10.9257 6.97256 10.9852 6.8 10.9852H4.75V13.7205H6.8C6.95019 13.7205 7.09692 13.7656 7.22119 13.85L10.8596 16.3195C11.0256 16.4321 11.25 16.3132 11.25 16.1126V8.10414Z" fill="white"/>
<path fill-rule="evenodd" clip-rule="evenodd" d="M15.5496 8.40037C15.8808 8.1516 16.351 8.21842 16.5997 8.54961C17.3216 9.51069 17.7497 10.7065 17.7497 12C17.7497 13.2936 17.3216 14.4894 16.5997 15.4505C16.351 15.7817 15.8808 15.8485 15.5496 15.5997C15.2184 15.351 15.1516 14.8808 15.4004 14.5496C15.9339 13.8394 16.2497 12.9577 16.2497 12C16.2497 11.0424 15.9339 10.1607 15.4004 9.45048C15.1516 9.11929 15.2184 8.64914 15.5496 8.40037Z" fill="white"/>
<path fill-rule="evenodd" clip-rule="evenodd" d="M16.7287 5.50371C17.0028 5.19316 17.4768 5.16361 17.7873 5.4377C19.6026 7.03992 20.7494 9.38651 20.7494 12C20.7494 14.6135 19.6026 16.9601 17.7873 18.5623C17.4768 18.8364 17.0028 18.8069 16.7287 18.4963C16.4546 18.1858 16.4842 17.7118 16.7947 17.4377C18.3011 16.1081 19.2494 14.1653 19.2494 12C19.2494 9.83473 18.3011 7.89187 16.7947 6.56231C16.4842 6.28821 16.4546 5.81426 16.7287 5.50371Z" fill="white"/>
</svg>
