<svg width="24" height="24" viewBox="0 0 24 24" fill="none" xmlns="http://www.w3.org/2000/svg">
<path fill-rule="evenodd" clip-rule="evenodd" d="M9.89485 6.74726C11.0381 5.81607 12.75 6.62961 12.75 8.10414V16.1126C12.75 17.5169 11.1792 18.3492 10.0172 17.5606L6.56951 15.2205H4C3.58579 15.2205 3.25 14.8847 3.25 14.4705V10.2352C3.25 9.82102 3.58579 9.48524 4 9.48524H6.53322L9.89485 6.74726ZM11.25 8.10414C11.25 7.89349 11.0054 7.77727 10.8421 7.9103L7.27364 10.8168C7.13984 10.9257 6.97256 10.9852 6.8 10.9852H4.75V13.7205H6.8C6.95019 13.7205 7.09692 13.7656 7.22119 13.85L10.8596 16.3195C11.0256 16.4321 11.25 16.3132 11.25 16.1126V8.10414Z" fill="white"/>
<path d="M15.2197 9.21967C15.5126 8.92678 15.9873 8.92678 16.2802 9.21967L20.2802 13.2197L20.332 13.2763C20.5723 13.5709 20.5548 14.0056 20.2802 14.2802C20.0056 14.5548 19.5709 14.5723 19.2763 14.332L19.2197 14.2802L15.2197 10.2802C14.9268 9.98732 14.9268 9.51256 15.2197 9.21967Z" fill="white"/>
<path d="M20.2803 9.21967C19.9874 8.92678 19.5127 8.92678 19.2198 9.21967L15.2198 13.2197L15.168 13.2763C14.9277 13.5709 14.9452 14.0056 15.2198 14.2802C15.4944 14.5548 15.9291 14.5723 16.2237 14.332L16.2803 14.2802L20.2803 10.2802C20.5732 9.98732 20.5732 9.51256 20.2803 9.21967Z" fill="white"/>
</svg>
