<svg width="70" height="130" viewBox="0 0 70 130" fill="none" xmlns="http://www.w3.org/2000/svg">
<path d="M65.548 40.9578C67.3692 40.2885 69.1087 39.4378 70.9851 38.9024C79.1112 36.5789 94.9683 36.6409 102.107 41.507C108.793 46.0649 104.969 54.1085 97.0227 53.3216C91.5381 52.7789 86.5126 50.4982 80.7971 52.2944C80.5781 52.3629 80.3756 52.2809 80.2625 52.5853C85.6976 56.4451 89.8141 61.4812 93.0639 67.2252C95.2401 71.0695 96.7191 75.2814 99.2844 78.9125C104.018 85.6152 109.902 88.3483 110.233 97.7223C110.362 101.391 108.652 108.373 103.767 107.461C99.3328 106.634 99.7774 103.476 98.257 100.215C96.5119 96.4751 94.1688 95.6463 91.203 93.2379C88.8005 91.288 85.8783 88.3381 83.9727 85.9003C83.5349 85.3389 82.4161 83.3543 82.0844 83.0889C81.0612 82.2752 79.164 84.4874 78.933 85.4806C78.7989 86.0562 78.8607 90.0365 78.9242 90.828C79.6589 100.032 89.7897 104.749 87.1022 114.298C86.2116 117.458 84.9734 119.434 81.8663 120.743C79.2887 121.83 76.0701 120.982 75.2555 118.071C74.8225 116.522 75.5067 114.361 74.7955 112.937C73.536 110.417 69.2933 106.92 67.3992 104.326C63.5464 99.0464 64.4742 95.0362 62.8502 89.3462C62.3144 87.4681 61.5647 85.518 60.6348 83.803C58.1956 89.6616 48.317 92.7764 44 92C39.683 91.2236 27 88.3462 29 81C30.089 77 38.5612 79.1348 42 80C45.4388 80.8652 47.9668 79.2897 48.3964 75.4516C48.7775 72.0541 48.6765 68.6249 49.317 65.2537C42.5615 67.9358 34.7483 67.7273 28.2667 64.2168C5.15338 51.7005 15.9323 15.6478 41.6437 16.1632C55.0528 16.4315 66.1605 27.4806 65.548 40.9578ZM35.6603 55.3265C35.3102 53.1196 30.9315 49.8197 29.7149 52.5194C28.7707 54.614 34.0789 59.3249 35.5643 56.1904C35.6695 55.967 35.7013 55.5725 35.6618 55.3276L35.6603 55.3265ZM41.146 40.4123C41.4239 42.1098 44.4008 44.8165 46.0766 44.0631C48.9905 42.7531 44.3818 37.5033 41.9854 38.6545C41.3394 38.9649 41.0348 39.7271 41.1475 40.4134L41.146 40.4123Z" fill="url(#paint0_linear_120_407)"/>
<path d="M27.6931 43.0337C36.3282 34.687 43.1866 26.9826 47.2845 28.3136C51.3825 29.6445 58.2457 39.05 57.6557 44.0855C57.2386 47.6449 49.7003 53.8917 47.9845 54.0131C47.7267 56.2128 44.7783 59.5929 41.2778 59.6354C41.2425 60.2409 41.3274 60.8551 40.8329 61.5889C38.1167 65.6185 33.9747 69.2922 29.8768 67.9612C25.7788 66.6302 22.0725 64.5885 18.9138 59.8714C16.7038 56.5711 22.424 48.3734 27.6931 43.0337Z" fill="#B9D1DE" fill-opacity="0.5"/>
<path d="M41.2779 59.6354C40.8771 56.5834 39.67 55.2266 37.9745 52.3119C33.9824 45.4492 41.4563 51.6404 43.0473 52.5838C44.6383 53.5272 46.2687 54.1346 47.9845 54.0131M41.2779 59.6354C41.2425 60.2409 41.3274 60.8551 40.8329 61.5889C38.1167 65.6185 33.9747 69.2922 29.8768 67.9612C25.7788 66.6302 22.0725 64.5885 18.9138 59.8714C16.7038 56.5711 22.424 48.3734 27.6931 43.0337C36.3282 34.687 43.1866 26.9826 47.2845 28.3136C51.3825 29.6445 58.2457 39.05 57.6557 44.0855C57.2386 47.6449 49.7003 53.8917 47.9845 54.0131M41.2779 59.6354C44.7783 59.5929 47.7267 56.2128 47.9845 54.0131" stroke="white" stroke-width="1.69"/>
<defs>
<linearGradient id="paint0_linear_120_407" x1="17.1624" y1="31.8815" x2="112.835" y2="98.8486" gradientUnits="userSpaceOnUse">
<stop stop-color="#F7FAFC"/>
<stop offset="1" stop-color="#B9D1DE"/>
</linearGradient>
</defs>
</svg>
