<svg width="106" height="119" viewBox="0 0 106 119" fill="none" xmlns="http://www.w3.org/2000/svg">
<path d="M73.1333 57.492C73.8596 58.9259 74.7272 60.2751 75.3486 61.7673C78.0438 68.2292 79.5217 81.282 76.2063 87.6247C73.1007 93.5651 66.114 91.1941 65.9954 84.5806C65.913 80.0157 67.305 75.661 65.2761 71.1315C65.1987 70.958 65.2465 70.7834 64.9852 70.7197C62.3335 75.5638 58.5868 79.4362 54.1741 82.6639C51.221 84.8251 47.8982 86.448 45.1579 88.9087C40.0994 93.4496 38.418 98.5543 30.7373 99.7307C27.7316 100.191 21.8217 99.4562 22.1009 95.3497C22.354 91.6213 24.9953 91.6826 27.5318 90.1173C30.4405 88.3209 30.8965 86.3131 32.5922 83.6408C33.9649 81.476 36.1102 78.7873 37.9322 76.9845C38.3519 76.5701 39.8769 75.4582 40.0634 75.1597C40.6342 74.2394 38.6311 72.8917 37.7916 72.7974C37.3051 72.7426 34.0362 73.1772 33.3911 73.3057C25.8891 74.7976 22.9848 83.5878 14.8694 82.2972C12.183 81.8692 10.4385 81.0409 9.06113 78.6107C7.91869 76.5947 8.30566 73.8647 10.6223 72.9139C11.855 72.4083 13.6991 72.7629 14.8026 72.0404C16.7544 70.7612 19.2228 66.9332 21.1743 65.1247C25.1466 61.4457 28.5356 61.8224 33.0606 59.9376C34.5541 59.3157 36.0864 58.5109 37.4077 57.5804C32.3523 56.1384 26.0212 56.4938 22.4129 51.9271C19.5132 48.2592 21.5661 43.7878 26.3956 44.3137C28.4519 44.5377 30.6879 45.5005 32.7616 45.9239C35.8805 46.561 39.8998 46.7224 43.0991 46.7058C45.9313 46.6918 48.7429 46.2781 51.5784 46.48C48.7203 41.1804 48.1386 34.7318 50.402 29.0605C58.4717 8.83671 89.1741 14.2293 91.2289 35.4336C92.301 46.4922 84.281 56.6965 73.1333 57.492ZM58.4295 34.2865C60.2116 33.7857 62.5045 29.8649 60.1659 29.1242C58.3515 28.5493 54.9873 33.3709 57.7095 34.2909C57.9035 34.3559 58.2311 34.344 58.4288 34.2879L58.4295 34.2865ZM71.2294 37.3621C69.8596 37.7544 67.9196 40.4647 68.7011 41.7709C70.0598 44.0421 73.9349 39.744 72.7566 37.8833C72.439 37.3817 71.7825 37.2045 71.2287 37.3635L71.2294 37.3621Z" fill="url(#paint0_linear_2689_2425)"/>
<path d="M67.7756 26.5461C75.4756 32.8461 82.4759 37.7462 81.7759 41.2462C81.0759 44.7462 73.999 51.3 69.799 51.3C66.8303 51.3 60.9638 45.7 60.6984 44.3C58.8638 44.3 55.7984 42.2 55.426 39.324C54.9244 39.3532 54.4272 39.4824 53.7758 39.1462C50.1984 37.3 46.7765 34.2462 47.4765 30.7462C48.1765 27.2462 49.499 23.9999 53.0756 20.9462C55.5779 18.8097 62.8743 22.7258 67.7756 26.5461Z" fill="#B9D1DE" fill-opacity="0.5"/>
<path d="M55.426 39.324C57.8984 38.7 58.8984 37.576 61.1331 35.9C66.3947 31.9538 62.0213 38.7 61.3984 40.1C60.7756 41.5 60.4331 42.9 60.6984 44.3M55.426 39.324C54.9244 39.3532 54.4272 39.4824 53.7758 39.1462C50.1984 37.3 46.7765 34.2462 47.4765 30.7462C48.1765 27.2462 49.499 23.9999 53.0756 20.9462C55.5779 18.8097 62.8743 22.7258 67.7756 26.5461C75.4756 32.8461 82.4759 37.7462 81.7759 41.2462C81.0759 44.7462 73.999 51.3 69.799 51.3C66.8303 51.3 60.9638 45.7 60.6984 44.3M55.426 39.324C55.7984 42.2 58.8638 44.3 60.6984 44.3" stroke="white" stroke-width="1.4"/>
<defs>
<linearGradient id="paint0_linear_2689_2425" x1="75.9361" y1="16.8067" x2="30.0615" y2="101.98" gradientUnits="userSpaceOnUse">
<stop stop-color="#F7FAFC"/>
<stop offset="1" stop-color="#B9D1DE"/>
</linearGradient>
</defs>
</svg>
