<svg width="60" height="61" viewBox="0 0 60 61" fill="none" xmlns="http://www.w3.org/2000/svg">
<path d="M46.3818 29.9228C46.9005 30.9471 47.5203 31.9108 47.9642 32.9767C49.8893 37.5923 50.9449 46.9157 48.5767 51.4462C46.3585 55.6893 41.368 53.9958 41.2832 49.2718C41.2244 46.0112 42.2187 42.9007 40.7695 39.6654C40.7142 39.5414 40.7484 39.4167 40.5617 39.3712C38.6676 42.8313 35.9914 45.5973 32.8395 47.9028C30.7301 49.4465 28.3567 50.6057 26.3993 52.3634C22.7861 55.6069 21.5852 59.253 16.0989 60.0934C13.952 60.4219 9.73066 59.8973 9.93003 56.964C10.1109 54.3009 11.9975 54.3447 13.8093 53.2266C15.8869 51.9435 16.2126 50.5094 17.4238 48.6006C18.4043 47.0543 19.9367 45.1338 21.2381 43.846C21.5379 43.5501 22.6272 42.7559 22.7604 42.5426C23.1681 41.8853 21.7374 40.9227 21.1377 40.8553C20.7902 40.8161 18.4553 41.1265 17.9945 41.2184C12.6359 42.284 10.5614 48.5627 4.76466 47.6409C2.84583 47.3351 1.59973 46.7435 0.615931 45.0076C-0.200098 43.5676 0.0763092 41.6177 1.73105 40.9385C2.61152 40.5773 3.9288 40.8306 4.71695 40.3146C6.11109 39.4008 7.87428 36.6665 9.2682 35.3748C12.1055 32.7469 14.5262 33.016 17.7584 31.6697C18.8252 31.2255 19.9197 30.6506 20.8635 29.986C17.2525 28.956 12.7302 29.2098 10.1529 25.9479C8.08172 23.328 9.54805 20.1341 12.9977 20.5098C14.4665 20.6698 16.0636 21.3575 17.5449 21.66C19.7726 22.115 22.6436 22.2303 24.9288 22.2184C26.9517 22.2084 28.9601 21.9129 30.9854 22.0571C28.9439 18.2717 28.5284 13.6656 30.1451 9.61462C35.9092 -4.83093 57.8395 -0.979042 59.3072 14.1669C60.073 22.0659 54.3444 29.3547 46.3818 29.9228ZM35.8791 13.3475C37.152 12.9898 38.7897 10.1892 37.1194 9.66013C35.8233 9.24952 33.4204 12.6935 35.3648 13.3506C35.5033 13.3971 35.7373 13.3886 35.8786 13.3485L35.8791 13.3475ZM45.0219 15.5444C44.0434 15.8246 42.6577 17.7605 43.2159 18.6935C44.1864 20.3158 46.9543 17.2457 46.1127 15.9166C45.8858 15.5584 45.4169 15.4318 45.0213 15.5453L45.0219 15.5444Z" fill="url(#paint0_linear_2561_7930)"/>
<defs>
<linearGradient id="paint0_linear_2561_7930" x1="48.3838" y1="0.861958" x2="15.6162" y2="61.6999" gradientUnits="userSpaceOnUse">
<stop stop-color="#F7FAFC"/>
<stop offset="1" stop-color="#B9D1DE"/>
</linearGradient>
</defs>
</svg>
