<svg width="142" height="30" viewBox="0 0 142 30" fill="none" xmlns="http://www.w3.org/2000/svg">
  <!-- W -->
  <path d="M0 1.32L7.32 21.36L14.64 1.32H29.26V21.36H26.69L26.69 6.61L19.37 21.36H14.6L7.28 6.61V21.36H0V1.32Z" fill="white"/>
  
  <!-- e -->
  <path d="M42.43 6.64C42.43 4.5 44.1 2.83 46.24 2.83C48.38 2.83 50.05 4.5 50.05 6.64V15.95H42.43V6.64ZM50.65 6.54C50.65 3.2 48.38 0.93 45.04 0.93C41.7 0.93 39.43 3.2 39.43 6.54V15.95H50.65V6.54Z" fill="white"/>
  
  <!-- i -->
  <path d="M67.36 0L67.36 22.59H84.56L84.56 0H67.36ZM67.36 2.58L67.36 20.49H82.48L82.48 2.58H67.36Z" fill="white"/>
  
  <!-- g -->
  <path d="M96.68 0L96.68 23.07H105.27L105.27 0H96.68ZM105.27 6.67L105.27 16.46H117.84L117.84 6.67H105.27ZM117.84 6.63L117.84 16.44H129.23L129.23 6.63H117.84ZM129.23 6.72L129.23 16.35H140.62L140.62 6.72H129.23Z" fill="white"/>
  
  <!-- h -->
  <path d="M43.39 0.05L43.39 4.57H48.97L48.97 0.05H43.39Z" fill="white"/>
</svg>
